<svg version="1" xmlns="http://www.w3.org/2000/svg" width="720" height="720" viewBox="0 0 540.000000 540.000000"><path d="M260.9 19.4c-.2.2-3.3.7-6.9 1-17.1 1.8-38.6 9.7-53.5 19.8-21.1 14.3-30.1 25.3-52 63.3-7.6 13.2-17 29.4-20.8 36-3.8 6.6-8 13.8-9.2 16-1.3 2.2-4.6 8-7.5 13-2.9 4.9-6.1 10.6-7.2 12.5-1.1 1.9-5.4 9.3-9.6 16.5-4.1 7.1-8.3 14.3-9.2 16-1 1.6-6.8 11.8-13 22.5-15.2 26.4-15 26-17.5 30.5-1.3 2.2-4.9 8.5-8.2 14-3.2 5.5-6.2 10.7-6.6 11.5-.4.8-1.7 3.1-2.8 5-7.7 12.7-21.8 37.6-24.4 43-8 16.2-11.7 32.3-12 52-.5 28.2 6.7 52.5 22 74.5 7.2 10.3 17.7 21.3 26.5 27.7 2.5 1.8 4.7 3.5 5 3.8 1.2 1.3 9.1 6 15.1 9 18 9.1 35.6 13.3 56.4 13.4 14.5 0 20.2-.8 39.5-5.8 14.4-3.8 36.4-17.3 49.9-30.8 10.6-10.5 15.9-18.3 31.1-44.8 6.7-11.8 13.9-24.2 15.9-27.5 2-3.3 4.5-7.7 5.6-9.7 1.1-2.1 2.2-3.8 2.5-3.8.3 0 8.2 13.4 17.5 29.8 20.5 35.9 26.2 44.4 35.8 54.3 16.8 17.1 36 28.4 58.7 34.3 12.1 3.1 18.8 3.9 32.5 4 14.2 0 20.2-.9 38.5-5.8 4.2-1.2 16.9-6.9 23.3-10.6 25.2-14.3 42.5-34.2 55-63.2 2.4-5.4 6.7-21.9 7.5-28.5 1.1-9.5.7-33.3-.8-40.8-3.5-18.1-7.7-27.7-25-57.5-6.2-10.7-12.4-21.5-13.8-24-1.4-2.5-7-12.1-12.4-21.4-5.4-9.3-9.8-17-9.8-17.2 0-.1-4-7.1-9-15.4-4.9-8.3-9-15.3-9-15.5 0-.2-1.9-3.6-4.3-7.7-2.4-4-5.5-9.3-6.9-11.8-2.3-4.2-7.7-13.4-28.3-49-8-13.8-17.2-29.8-20.7-36-6.7-11.7-20.6-35.3-23.6-40-6-9.3-20.5-25.1-27.4-29.8-1.3-.9-2.5-1.8-2.8-2.1-3-3.4-21.7-13.4-31.8-17.1-11.8-4.3-27-7.1-40.3-7.5-6.5-.2-11.9-.2-12-.1z"/></svg>